HIERARCHY
ROOT Hips
{
	OFFSET 0.000000 0.000000 0.000000
	CHANNELS 6 Xposition Yposition Zposition Zrotation Yrotation Xrotation 
	JOINT LHipJoint
	{
		OFFSET 0.000000 0.000000 0.000000
		CHANNELS 3 Zrotation Yrotation Xrotation
		JOINT LeftUpLeg
		{
			OFFSET 1.363060 -1.794630 0.839290
			CHANNELS 3 Zrotation Yrotation Xrotation
			JOINT LeftLeg
			{
				OFFSET 2.448110 -6.726130 0.000000
				CHANNELS 3 Zrotation Yrotation Xrotation
				JOINT LeftFoot
				{
					OFFSET 2.562200 -7.039590 0.000000
					CHANNELS 3 Zrotation Yrotation Xrotation
					JOINT LeftToeBase
					{
						OFFSET 0.157640 -0.433110 2.322550
						CHANNELS 3 Zrotation Yrotation Xrotation
						End Site
						{
							OFFSET 0.000000 0.000000 0.000000
						}
					}
				}
			}
		}
	}
	JOINT RHipJoint
	{
		OFFSET 0.000000 0.000000 0.000000
		CHANNELS 3 Zrotation Yrotation Xrotation
		JOINT RightUpLeg
		{
			OFFSET -1.305520 -1.794630 0.839290
			CHANNELS 3 Zrotation Yrotation Xrotation
			JOINT RightLeg
			{
				OFFSET -2.542530 -6.985550 0.000000
				CHANNELS 3 Zrotation Yrotation Xrotation
				JOINT RightFoot
				{
					OFFSET -2.568260 -7.056230 0.000000
					CHANNELS 3 Zrotation Yrotation Xrotation
					JOINT RightToeBase
					{
						OFFSET -0.164730 -0.452590 2.363150
						CHANNELS 3 Zrotation Yrotation Xrotation
						End Site
						{
							OFFSET 0.000000 0.000000 0.000000
						}
					}
				}
			}
		}
	}
}
MOTION
Frames: 31
Frame Time: 0.008333
6.290960 15.602925 0.663562 90.958503 -88.858968 -42.476088 -8.687893 -2.478729 -0.741853 -10.809264 -9.209553 -80.796578 1.020759 4.787507 72.532063 2.464520 10.302391 -11.436736 -0.189601 -0.000000 -44.451700 8.436454 1.706278 0.919644 6.396374 10.299189 -70.591229 1.201186 -3.999194 57.596806 -2.121855 -1.895732 -26.242570 1.289499 0.000000 -58.711700
6.182163 15.694364 0.654972 92.300117 -88.903361 -43.984111 -8.692778 -2.449149 -0.696110 -10.868365 -9.054932 -80.642834 1.091597 4.767157 72.464798 2.496915 10.714762 -10.092622 0.074400 0.000000 -42.578400 8.458285 1.580238 0.996203 6.523499 10.220935 -69.091366 1.335700 -3.787933 55.658225 -2.098886 -1.872370 -25.731392 1.245000 0.000000 -58.940700
6.072869 15.780963 0.646686 93.075122 -88.953045 -44.925208 -8.690362 -2.415714 -0.639840 -10.924003 -8.920732 -80.538677 1.141937 4.749886 72.374148 2.540510 11.110857 -9.055029 0.291900 -0.000000 -40.441400 8.478950 1.455946 1.073863 6.662698 10.143608 -67.598880 1.463451 -3.574757 53.723190 -2.078937 -1.870246 -25.211657 1.204000 -0.000000 -59.158800
5.963071 15.862827 0.638848 93.254449 -89.008496 -45.273404 -8.680792 -2.375318 -0.574797 -10.979656 -8.804089 -80.461332 1.166861 4.733590 72.215519 2.591549 11.476466 -8.346343 0.453700 -0.000000 -38.190200 8.498778 1.334759 1.147788 6.815670 10.060663 -66.099838 1.586911 -3.359211 51.786058 -2.060008 -1.877637 -24.691267 1.164600 0.000000 -59.353900
5.853000 15.940084 0.631463 92.783456 -89.067214 -44.979674 -8.663533 -2.324286 -0.500613 -11.038820 -8.707286 -80.394193 1.163019 4.715946 71.946956 2.646603 11.798564 -7.964006 0.554900 -0.000000 -35.968400 8.518715 1.219325 1.214247 6.980149 9.963780 -64.588509 1.707637 -3.141604 49.849068 -2.040244 -1.883509 -24.179559 1.125600 -0.000000 -59.507600
5.742794 16.012833 0.624710 91.637337 -89.132244 -44.019911 -8.638946 -2.261724 -0.419614 -11.098410 -8.624930 -80.324411 1.128222 4.695233 71.533459 2.701792 12.060975 -7.885472 0.594300 -0.000000 -33.890300 8.538274 1.111275 1.268797 7.157220 9.853752 -63.056577 1.826207 -2.921379 47.912988 -2.019322 -1.885304 -23.682135 1.087100 -0.000000 -59.624000
5.632427 16.081139 0.618398 89.757262 -89.195734 -42.335027 -8.606275 -2.183367 -0.326951 -11.160063 -8.567313 -80.246942 1.061423 4.668524 70.940148 2.754400 12.252729 -8.062095 0.578301 -0.000000 -32.054000 8.559295 1.013915 1.310315 7.339530 9.720754 -61.512182 1.942151 -2.699757 45.992385 -1.996221 -1.876962 -23.205960 1.049000 0.000000 -59.685000
5.522218 16.145190 0.612627 87.166816 -89.260193 -39.948747 -8.566507 -2.090507 -0.225332 -11.217603 -8.527871 -80.156060 0.962549 4.634422 70.143185 2.800602 12.359137 -8.433309 0.516700 -0.000000 -30.524000 8.580261 0.928446 1.334685 7.527474 9.570236 -59.952339 2.054096 -2.476601 44.093704 -1.972072 -1.864855 -22.750464 1.012500 0.000000 -59.715800
5.412144 16.205094 0.607300 83.849403 -89.319090 -36.841575 -8.520623 -1.981578 -0.109795 -11.267770 -8.515179 -80.053343 0.832999 4.590276 69.120009 2.837846 12.374198 -8.920449 0.426599 0.000000 -29.365900 8.601118 0.856360 1.341345 7.716053 9.397333 -58.390071 2.160248 -2.253580 42.235144 -1.947369 -1.851759 -22.315697 0.978201 0.000000 -59.713400
5.302328 16.261095 0.602397 79.893584 -89.369609 -33.100486 -8.471109 -1.858576 0.019981 -11.305813 -8.528709 -79.936900 0.674917 4.534242 67.856264 2.863152 12.293785 -9.444492 0.326700 0.000000 -28.618600 8.619664 0.797117 1.327948 7.904617 9.203979 -56.829880 2.258631 -2.031849 40.428444 -1.923456 -1.846101 -21.896594 0.946800 0.000000 -59.700000
5.192854 16.313392 0.597928 75.398245 -89.407221 -28.823793 -8.421319 -1.724033 0.165895 -11.327417 -8.570543 -79.805175 0.491542 4.464177 66.343041 2.874407 12.121448 -9.929474 0.236000 0.000000 -28.304100 8.633167 0.748886 1.293393 8.093133 8.990009 -55.279292 2.347664 -1.813235 38.685977 -1.901565 -1.855689 -21.487339 0.918800 0.000000 -59.689900
5.083935 16.362372 0.593810 70.724469 -89.425636 -24.374721 -8.373697 -1.583622 0.323806 -11.335368 -8.636626 -79.644216 0.285495 4.377544 64.575152 2.870061 11.865673 -10.318155 0.168700 -0.000000 -28.401000 8.639891 0.708749 1.233873 8.280211 8.752026 -53.735954 2.426676 -1.600220 37.012132 -1.881550 -1.884473 -21.078374 0.893299 0.000000 -59.719200
4.975346 16.408131 0.590166 66.060189 -89.424590 -19.936408 -8.331086 -1.441403 0.497767 -11.325260 -8.727837 -79.456039 0.060962 4.271407 62.554864 2.850301 11.541984 -10.565789 0.135800 0.000000 -28.880500 8.638440 0.671010 1.152223 8.473220 8.487017 -52.214612 2.497138 -1.395973 35.413881 -1.861712 -1.928036 -20.658182 0.868200 0.000000 -59.803901
4.867060 16.450804 0.587115 61.535661 -89.404258 -15.642583 -8.294748 -1.301223 0.685384 -11.297574 -8.839386 -79.226628 -0.178896 4.142981 60.289497 2.816090 11.167543 -10.657129 0.139400 0.000000 -29.677900 8.628878 0.633105 1.046999 8.676400 8.191732 -50.711517 2.560418 -1.202623 33.892525 -1.841150 -1.984164 -20.222421 0.842299 -0.000000 -59.954100
4.759351 16.490778 0.584614 57.389061 -89.366141 -11.744654 -8.262963 -1.167690 0.877684 -11.259978 -8.959829 -78.924820 -0.432408 3.988864 57.787275 2.769322 10.760638 -10.603262 0.174700 -0.000000 -30.698500 8.614162 0.594619 0.913433 8.889927 7.859891 -49.207629 2.618172 -1.022032 32.440829 -1.817850 -2.046563 -19.766976 0.814199 0.000000 -60.190300
4.651766 16.527834 0.582958 53.514089 -89.319067 -8.136417 -8.236898 -1.041930 1.076136 -11.208956 -9.082475 -78.544837 -0.696613 3.806836 55.065547 2.713075 10.339190 -10.425861 0.234900 0.000000 -31.872399 8.594625 0.553416 0.754835 9.120441 7.493361 -47.702422 2.672725 -0.854508 31.057129 -1.790399 -2.106696 -19.293038 0.782900 0.000000 -60.497200
4.544290 16.561983 0.582333 49.917314 -89.272092 -4.833752 -8.215528 -0.926590 1.275110 -11.147565 -9.193802 -78.067754 -0.969982 3.594580 52.142176 2.650614 9.918349 -10.164162 0.309599 0.000000 -33.109200 8.572040 0.509820 0.570441 9.368767 7.092197 -46.182087 2.726002 -0.700073 29.734688 -1.756846 -2.153820 -18.803773 0.747800 0.000000 -60.869400
4.436579 16.592895 0.582935 46.507615 -89.235725 -1.746241 -8.199202 -0.823404 1.474133 -11.074892 -9.283886 -77.491573 -1.250212 3.350426 49.041010 2.585479 9.510503 -9.859673 0.389300 0.000000 -34.328399 8.546515 0.463121 0.364581 9.634903 6.661798 -44.646490 2.779775 -0.558015 28.470952 -1.715939 -2.177000 -18.306976 0.709001 -0.000000 -61.288200
4.328900 16.620713 0.584805 43.242873 -89.220802 1.153295 -8.186807 -0.736974 1.661863 -10.996599 -9.331971 -76.792219 -1.535606 3.072802 45.784828 2.519901 9.122465 -9.555989 0.464000 0.000000 -35.446800 8.518896 0.415544 0.133885 9.914556 6.203850 -43.068847 2.834880 -0.427042 27.253874 -1.666418 -2.167353 -17.808917 0.667000 0.000000 -61.746100
4.220447 16.644636 0.588243 39.931940 -89.236463 4.070277 -8.181259 -0.668638 1.845642 -10.906552 -9.336000 -76.000756 -1.821540 2.761759 42.407281 2.456650 8.759901 -9.281094 0.529000 0.000000 -36.399800 8.486172 0.364348 -0.109154 10.204242 5.733124 -41.474992 2.892120 -0.306143 26.091621 -1.608741 -2.117737 -17.322445 0.623100 0.000000 -62.213000
4.111133 16.664480 0.593257 36.453760 -89.288887 7.125427 -8.184304 -0.622677 2.021730 -10.807401 -9.284948 -75.126447 -2.103512 2.418119 38.940794 2.396558 8.423320 -9.054903 0.580600 0.000000 -37.132000 8.446102 0.309290 -0.359944 10.496835 5.259433 -39.866084 2.951351 -0.194323 24.983365 -1.543716 -2.025875 -16.856772 0.578700 -0.000000 -62.676500
4.000687 16.679970 0.599852 32.639354 -89.380011 10.493889 -8.199744 -0.603462 2.189473 -10.701816 -9.172185 -74.191495 -2.375872 2.044486 35.421653 2.339232 8.109730 -8.882257 0.618001 0.000000 -37.616000 8.394868 0.248223 -0.610562 10.784341 4.795366 -38.253239 3.012036 -0.090913 23.931584 -1.473037 -1.893771 -16.419845 0.535200 0.000000 -63.127300
3.888822 16.690860 0.608019 28.271513 -89.505668 14.402998 -8.232934 -0.616315 2.349265 -10.593891 -8.996701 -73.226981 -2.632557 1.645264 31.888691 2.283084 7.812916 -8.756444 0.642300 0.000000 -37.856800 8.327157 0.177601 -0.852296 11.058811 4.353391 -36.657029 3.073701 0.003675 22.942661 -1.399169 -1.727495 -16.019050 0.493800 -0.000001 -63.559500
3.775154 16.697018 0.617624 23.061254 -89.652768 19.154033 -8.290430 -0.668911 2.500199 -10.491612 -8.761123 -72.262178 -2.868174 1.226179 28.382273 2.225162 7.522919 -8.663729 0.655400 0.000000 -37.893900 8.237127 0.091050 -1.076962 11.313017 3.942807 -35.095649 3.136239 0.088024 22.019139 -1.324969 -1.537490 -15.658005 0.455500 -0.000001 -63.976500
3.659624 16.698549 0.628544 16.609856 -89.794130 25.152586 -8.376700 -0.772718 2.639923 -10.405209 -8.474142 -71.322580 -3.079104 0.793208 24.943676 2.161149 7.225447 -8.588060 0.659300 0.000000 -37.793401 8.121097 -0.021522 -1.276338 11.542101 3.568183 -33.589088 3.200356 0.158099 21.162498 -1.253607 -1.337653 -15.338552 0.420500 -0.000000 -64.387199
3.541824 16.695480 0.640672 8.372558 -89.883667 32.956193 -8.486355 -0.941845 2.763483 -10.342921 -8.151458 -70.427918 -3.265445 0.350882 21.616279 2.085576 6.901559 -8.517772 0.654600 -0.000000 -37.633000 7.986298 -0.173837 -1.442118 11.747321 3.227843 -32.156556 3.267716 0.207305 20.367630 -1.188273 -1.144631 -15.060483 0.389000 -0.000000 -64.804300
3.421869 16.688172 0.653873 -2.341219 -89.859403 43.256908 -8.587885 -1.183771 2.862858 -10.302332 -7.808319 -69.589225 -3.433480 -0.098206 18.445265 1.992150 6.527949 -8.449020 0.640800 0.000000 -37.487700 7.866845 -0.375709 -1.566019 11.942925 2.917682 -30.808747 3.338589 0.228098 19.621963 -1.131784 -0.977621 -14.818875 0.360600 -0.000000 -65.245900
3.299449 16.676858 0.668076 -16.082285 -89.671128 56.611647 -8.616214 -1.471231 2.935192 -10.255113 -7.445588 -68.823239 -3.595941 -0.550306 15.471081 1.878015 6.086124 -8.393560 0.616000 0.000000 -37.414600 7.832754 -0.611387 -1.643691 12.160261 2.640306 -29.545533 3.407709 0.221562 18.916408 -1.083912 -0.845852 -14.601376 0.334700 0.000001 -65.727500
3.174582 16.661780 0.683280 -32.500859 -89.326302 72.668514 -8.517776 -1.728260 2.992086 -10.150937 -7.035186 -68.159595 -3.759931 -0.993532 12.712308 1.750594 5.580699 -8.383327 0.577900 0.000000 -37.444700 7.941860 -0.823468 -1.684437 12.427853 2.413903 -28.347224 3.464000 0.207337 18.261989 -1.038897 -0.732747 -14.386098 0.310801 -0.000000 -66.260900
3.047273 16.643291 0.699567 -49.727910 -88.876736 89.551168 -8.323404 -1.889186 3.054573 -9.957513 -6.545263 -67.616300 -3.912326 -1.410280 10.164968 1.624890 5.039050 -8.460234 0.525100 0.000001 -37.582600 8.161271 -0.959321 -1.708053 12.738180 2.255874 -27.180752 3.501825 0.210997 17.679375 -0.990083 -0.607853 -14.154501 0.288000 0.000000 -66.853600
2.917503 16.621527 0.717002 -65.220831 -88.363816 104.715767 -8.116147 -1.962865 3.134414 -9.677906 -5.989278 -67.179661 -4.031214 -1.789612 7.826163 1.511774 4.490717 -8.650082 0.458000 -0.000000 -37.804800 8.398782 -1.023566 -1.730356 13.053296 2.154847 -26.034977 3.526843 0.238502 17.177578 -0.934960 -0.449752 -13.906240 0.265600 0.000000 -67.504900
